<svg width="135" height="43" viewBox="0 0 135 43" fill="none" xmlns="http://www.w3.org/2000/svg">
<path fill-rule="evenodd" clip-rule="evenodd" d="M19.1356 37.5671C29.4909 37.5671 37.8856 29.1724 37.8856 18.8171C37.8856 8.46172 29.4909 0.0670624 19.1356 0.0670624C8.78022 0.0670624 0.385559 8.46172 0.385559 18.8171C0.385559 29.1724 8.78022 37.5671 19.1356 37.5671ZM19.7548 14.5397H17.5747C16.6498 14.5397 15.9831 14.3055 15.5747 13.837C15.1663 13.3566 14.9621 12.726 14.9621 11.9452C14.9621 10.2155 16.2534 9.35066 18.8359 9.35066C21.2623 9.35066 23.0881 9.71101 24.3132 10.4317L23.2682 11.2245C22.4274 10.8401 20.95 10.6479 18.8359 10.6479C17.8029 10.6479 17.1062 10.762 16.7459 10.9903C16.3975 11.2185 16.2234 11.5368 16.2234 11.9452C16.2234 12.3536 16.3195 12.6719 16.5116 12.9001C16.7038 13.1283 17.0582 13.2425 17.5747 13.2425H19.8089C21.4304 13.2425 22.8899 13.5187 24.1871 14.0713C25.4964 14.6238 26.5715 15.3805 27.4123 16.3415C28.2531 17.2904 28.8957 18.3895 29.3402 19.6387C29.7846 20.8759 30.0068 22.2032 30.0068 23.6206C30.0068 24.7737 29.8446 25.8668 29.5203 26.8998C29.196 27.9328 28.7035 28.8817 28.0429 29.7466C27.3943 30.6114 26.6075 31.3621 25.6826 31.9988C24.7697 32.6234 23.6766 33.1098 22.4034 33.4582C21.1422 33.8185 19.7728 33.9987 18.2954 33.9987C15.9771 33.9987 13.803 33.6444 11.773 32.9357C9.75505 32.239 8.07341 31.26 6.72809 29.9988L7.77311 29.224C8.99831 30.3291 10.5298 31.188 12.3676 31.8006C14.2174 32.4011 16.1933 32.7014 18.2954 32.7014C19.941 32.7014 21.4244 32.4672 22.7457 31.9988C24.079 31.5183 25.1721 30.8636 26.0249 30.0348C26.8898 29.206 27.5504 28.2451 28.0069 27.152C28.4753 26.059 28.7095 24.8818 28.7095 23.6206C28.7095 21.9509 28.3732 20.4435 27.7006 19.0982C27.0279 17.7408 26.0009 16.6418 24.6195 15.801C23.2502 14.9601 21.6286 14.5397 19.7548 14.5397ZM17.5747 15.837H19.6287C22.0671 15.837 23.9709 16.5817 25.3403 18.0712C26.7216 19.5606 27.4123 21.4104 27.4123 23.6206C27.4123 25.8668 26.6135 27.7286 25.0159 29.206C23.4184 30.6715 21.1782 31.4042 18.2954 31.4042C16.3735 31.4042 14.5778 31.1399 12.9081 30.6114C11.2385 30.0829 9.85114 29.3382 8.74606 28.3772L9.75505 27.5664C10.74 28.3712 11.9772 28.9958 13.4667 29.4403C14.9681 29.8847 16.5777 30.1069 18.2954 30.1069C20.8299 30.1069 22.7637 29.5003 24.097 28.2871C25.4424 27.0739 26.115 25.5184 26.115 23.6206C26.115 21.7467 25.5505 20.1972 24.4214 18.972C23.3043 17.7468 21.7007 17.1343 19.6107 17.1343H17.5747C15.821 17.1343 14.5057 16.6538 13.6288 15.6928C12.752 14.7319 12.3135 13.4827 12.3135 11.9452C12.3135 10.4077 12.8541 9.15847 13.9351 8.19753C15.0282 7.23659 16.6618 6.75613 18.8359 6.75613C20.3614 6.75613 21.7788 6.9363 23.0881 7.29665C24.3973 7.64499 25.4784 8.14948 26.3312 8.81013L25.3042 9.6029C23.8028 8.56989 21.6466 8.05339 18.8359 8.05339C17.0221 8.05339 15.6948 8.41374 14.854 9.13445C14.0252 9.84314 13.6108 10.7801 13.6108 11.9452C13.6108 13.1223 13.9171 14.0653 14.5297 14.7739C15.1543 15.4826 16.1693 15.837 17.5747 15.837ZM17.5747 18.4315H19.5566C21.3103 18.4315 22.6256 18.918 23.5025 19.8909C24.3793 20.8639 24.8177 22.1071 24.8177 23.6206C24.8177 25.1581 24.2712 26.4073 23.1781 27.3682C22.0971 28.3292 20.4695 28.8096 18.2954 28.8096C16.7699 28.8096 15.3465 28.6355 14.0252 28.2871C12.7159 27.9268 11.6349 27.4163 10.782 26.7556L11.809 25.9629C13.3105 26.9959 15.4726 27.5124 18.2954 27.5124C20.1091 27.5124 21.4304 27.158 22.2592 26.4493C23.1001 25.7286 23.5205 24.7857 23.5205 23.6206C23.5205 22.4554 23.2082 21.5185 22.5836 20.8098C21.959 20.0891 20.944 19.7288 19.5386 19.7288H17.5747C15.1123 19.7288 13.1844 18.9961 11.791 17.5306C10.4097 16.0532 9.71901 14.1914 9.71901 11.9452C9.71901 9.699 10.5178 7.84319 12.1153 6.37776C13.7129 4.90031 15.9531 4.16159 18.8359 4.16159C20.7578 4.16159 22.5475 4.42585 24.2051 4.95437C25.8748 5.48288 27.2621 6.22761 28.3672 7.18855L27.3582 7.99934C26.3733 7.19455 25.1361 6.56994 23.6466 6.12551C22.1571 5.68108 20.5536 5.45886 18.8359 5.45886C16.3014 5.45886 14.3615 6.06545 13.0162 7.27864C11.6829 8.49182 11.0163 10.0473 11.0163 11.9452C11.0163 13.831 11.5808 15.3865 12.7099 16.6117C13.839 17.8249 15.4606 18.4315 17.5747 18.4315ZM17.5747 21.026H19.5566C20.4815 21.026 21.1482 21.2663 21.5566 21.7467C21.965 22.2272 22.1692 22.8518 22.1692 23.6206C22.1692 25.3503 20.8779 26.2151 18.2954 26.2151C15.857 26.2151 14.0252 25.8548 12.8 25.1341L13.845 24.3413C14.6859 24.7257 16.1693 24.9178 18.2954 24.9178C19.3284 24.9178 20.0191 24.8037 20.3674 24.5755C20.7278 24.3473 20.9079 24.029 20.9079 23.6206C20.9079 23.2242 20.8058 22.9119 20.6016 22.6837C20.4094 22.4434 20.0491 22.3233 19.5206 22.3233H17.5747C15.9171 22.3233 14.4156 22.053 13.0703 21.5125C11.737 20.972 10.6379 20.2273 9.77306 19.2783C8.92023 18.3294 8.26559 17.2303 7.80915 15.9811C7.3527 14.7319 7.12448 13.3866 7.12448 11.9452C7.12448 10.7921 7.28664 9.699 7.61095 8.66599C7.93527 7.63298 8.42175 6.68405 9.07038 5.81921C9.73102 4.95437 10.5178 4.20964 11.4307 3.58503C12.3556 2.94841 13.4486 2.45593 14.7099 2.10759C15.9831 1.74724 17.3585 1.56706 18.8359 1.56706C21.1542 1.56706 23.3223 1.92141 25.3403 2.6301C27.3582 3.32678 29.0399 4.30573 30.3852 5.56697L29.3402 6.34172C28.115 5.23664 26.5835 4.38381 24.7457 3.78322C22.9079 3.17063 20.938 2.86433 18.8359 2.86433C17.1903 2.86433 15.7008 3.10456 14.3675 3.58503C13.0463 4.05349 11.9532 4.70212 11.0883 5.53093C10.2355 6.35974 9.57487 7.32068 9.10641 8.41374C8.64997 9.50681 8.42175 10.684 8.42175 11.9452C8.42175 13.6388 8.76408 15.1643 9.44875 16.5217C10.1334 17.879 11.1784 18.972 12.5838 19.8009C13.9892 20.6176 15.6528 21.026 17.5747 21.026ZM54.6282 23.9449L55.1507 22.6476H59.583L60.1055 23.9449H54.6282ZM53.6192 26.5394L54.1237 25.2422H60.592L61.1505 26.5394H53.6192ZM52.6102 29.134L53.1147 27.8367H61.619L62.1595 29.134H52.6102ZM42.0699 32.7014H40.6646L52.4661 2.86433H53.8714L65.6549 32.7014H64.2676L53.1688 4.61203L42.0699 32.7014ZM53.3309 7.69304L54.0696 9.35066L44.8446 32.7014H43.4573L53.3309 7.69304ZM54.7723 11.1164L55.457 12.9001L47.6554 32.7014H46.25L54.7723 11.1164ZM56.1417 14.6839L56.8263 16.5036L50.4301 32.7014H49.0427L56.1417 14.6839ZM74.0331 32.7014H72.6277L60.8442 2.86433H62.2316L74.0331 32.7014ZM59.4389 2.86433L71.2404 32.7014H69.853L58.0515 2.86433H59.4389ZM56.6462 2.86433L68.4477 32.7014H67.0423L55.2588 2.86433H56.6462ZM107.087 17.1162H108.384V32.7014H107.087V17.1162ZM112.276 17.1162H113.573V32.7014H112.276V17.1162ZM109.681 17.1162H110.979V32.7014H109.681V17.1162ZM105.789 17.1162V32.7014C103.507 33.5663 101.141 33.9987 98.6905 33.9987C96.5645 33.9987 94.5285 33.6083 92.5826 32.8276C90.6367 32.0468 88.925 30.9657 87.4476 29.5844C85.9701 28.191 84.787 26.4734 83.8981 24.4314C83.0213 22.3774 82.5828 20.1612 82.5828 17.7829C82.5828 15.5847 83.0092 13.4887 83.8621 11.4947C84.7269 9.48879 85.88 7.76511 87.3214 6.3237C88.7749 4.87029 90.4986 3.71716 92.4925 2.86433C94.4985 1.99948 96.6005 1.56706 98.7986 1.56706C101.537 1.56706 104.084 2.20368 106.438 3.47693C108.792 4.75017 110.714 6.47986 112.204 8.66599L111.123 9.36867C109.753 7.36272 107.982 5.77717 105.807 4.61203C103.645 3.4469 101.309 2.86433 98.7986 2.86433C96.7807 2.86433 94.8468 3.26071 92.997 4.05349C91.1592 4.83425 89.5736 5.89128 88.2403 7.22458C86.907 8.55788 85.844 10.1494 85.0512 11.9992C84.2705 13.837 83.8801 15.7649 83.8801 17.7829C83.8801 19.957 84.2825 21.987 85.0873 23.8728C85.9041 25.7587 86.9851 27.3382 88.3304 28.6114C89.6878 29.8847 91.2613 30.8877 93.051 31.6204C94.8408 32.3411 96.7026 32.7014 98.6365 32.7014C100.666 32.7014 102.618 32.3831 104.492 31.7465V30.5033C102.702 31.1039 100.823 31.4042 98.8527 31.4042C97.4233 31.4042 96.0299 31.206 94.6726 30.8096C93.3273 30.4012 92.0781 29.8066 90.925 29.0259C89.7839 28.2331 88.7809 27.2962 87.916 26.2151C87.0632 25.122 86.3905 23.8548 85.8981 22.4134C85.4176 20.96 85.1774 19.4165 85.1774 17.7829C85.1774 15.3205 85.784 13.0443 86.9971 10.9542C88.2223 8.86418 89.8799 7.21257 91.97 5.99939C94.06 4.77419 96.3362 4.16159 98.7986 4.16159C101.105 4.16159 103.249 4.70212 105.231 5.78318C107.213 6.85222 108.828 8.30564 110.078 10.1434L108.997 10.8461C107.867 9.1885 106.402 7.87922 104.6 6.91828C102.811 5.94533 100.877 5.45886 98.7986 5.45886C97.129 5.45886 95.5315 5.78318 94.006 6.43181C92.4805 7.08044 91.1652 7.9573 90.0601 9.06238C88.9671 10.1554 88.0962 11.4647 87.4476 12.9902C86.7989 14.5157 86.4746 16.1133 86.4746 17.7829C86.4746 19.2843 86.6908 20.6957 87.1233 22.017C87.5677 23.3263 88.1743 24.4734 88.943 25.4584C89.7238 26.4313 90.6307 27.2721 91.6637 27.9808C92.6967 28.6775 93.8198 29.206 95.033 29.5664C96.2582 29.9267 97.5134 30.1069 98.7986 30.1069C100.793 30.1069 102.69 29.7706 104.492 29.0979V27.8007C102.714 28.4853 100.859 28.8277 98.9248 28.8277C97.4593 28.8277 96.06 28.5814 94.7267 28.0889C93.3934 27.5844 92.2042 26.8758 91.1592 25.9629C90.1262 25.05 89.3034 23.8848 88.6908 22.4675C88.0782 21.0501 87.7719 19.4885 87.7719 17.7829C87.7719 15.7889 88.2644 13.9451 89.2493 12.2515C90.2343 10.5578 91.5736 9.21853 93.2673 8.23357C94.9609 7.24861 96.8047 6.75613 98.7986 6.75613C100.66 6.75613 102.39 7.18855 103.988 8.05339C105.597 8.91823 106.907 10.0954 107.916 11.5848L106.834 12.2875C105.946 10.9903 104.792 9.96325 103.375 9.20652C101.97 8.43777 100.444 8.05339 98.7986 8.05339C97.0329 8.05339 95.4053 8.49182 93.9159 9.36867C92.4264 10.2335 91.2433 11.4107 90.3664 12.9001C89.5016 14.3896 89.0692 16.0172 89.0692 17.7829C89.0692 19.0081 89.2433 20.1492 89.5917 21.2062C89.94 22.2633 90.4205 23.1761 91.0331 23.9449C91.6457 24.7136 92.3604 25.3683 93.1772 25.9088C94.006 26.4493 94.8948 26.8577 95.8438 27.134C96.7927 27.3983 97.7776 27.5304 98.7986 27.5304C100.829 27.5304 102.726 27.128 104.492 26.3232V25.08C102.787 25.8367 100.943 26.2151 98.9608 26.2151C97.8197 26.2151 96.7446 26.0409 95.7357 25.6926C94.7267 25.3443 93.8138 24.8338 92.997 24.1611C92.1922 23.4884 91.5496 22.6056 91.0691 21.5125C90.6006 20.4074 90.3664 19.1642 90.3664 17.7829C90.3664 16.6418 90.5886 15.5547 91.0331 14.5217C91.4775 13.4767 92.0781 12.5758 92.8348 11.8191C93.5916 11.0623 94.4864 10.4617 95.5194 10.0173C96.5645 9.57287 97.6575 9.35066 98.7986 9.35066C100.228 9.35066 101.555 9.68699 102.781 10.3596C104.006 11.0203 105.003 11.9212 105.771 13.0623L104.708 13.765C104.06 12.804 103.213 12.0473 102.168 11.4947C101.135 10.9302 100.012 10.6479 98.7986 10.6479C96.8287 10.6479 95.1471 11.3446 93.7537 12.738C92.3604 14.1313 91.6637 15.813 91.6637 17.7829C91.6637 18.9961 91.8619 20.0711 92.2583 21.008C92.6546 21.9329 93.1952 22.6777 93.8798 23.2422C94.5765 23.7947 95.3453 24.2152 96.1861 24.5034C97.0389 24.7797 97.9518 24.9178 98.9248 24.9178C100.919 24.9178 102.775 24.5034 104.492 23.6746V17.1162H105.789ZM133.402 2.86433H134.699V32.7014H133.402V2.86433ZM130.807 2.86433H132.104V32.7014H130.807V2.86433ZM128.213 2.86433H129.51V32.7014H128.213V2.86433ZM125.618 2.86433H126.915V32.7014H125.618V2.86433ZM8.22156 41.2335C8.21356 41.3495 8.15156 41.4295 8.03556 41.4735C7.92356 41.5175 7.71956 41.5395 7.42356 41.5395C7.12756 41.5395 6.87956 41.5135 6.67956 41.4615C6.48356 41.4055 6.38556 41.3355 6.38556 41.2515C6.38556 41.1555 6.56356 40.5435 6.91956 39.4155C7.27556 38.2835 7.47956 37.6315 7.53156 37.4595C7.55156 37.4075 7.71156 37.3655 8.01156 37.3335C8.31556 37.2975 8.63956 37.2795 8.98356 37.2795C9.33156 37.2795 9.52356 37.3395 9.55956 37.4595C10.3156 39.9715 10.6936 41.2475 10.6936 41.2875C10.6936 41.3275 10.6696 41.3675 10.6216 41.4075C10.5096 41.4955 10.2876 41.5395 9.95556 41.5395C9.24756 41.5395 8.88556 41.4555 8.86956 41.2875L8.82756 40.8975H8.25156L8.22156 41.2335ZM8.70156 39.7575L8.61156 38.6775H8.47956L8.37756 39.7575H8.70156ZM16.1483 41.4375C16.0523 41.3935 15.9483 41.3275 15.8363 41.2395C15.7283 41.1515 15.6383 41.0475 15.5663 40.9275C15.3983 40.6395 15.3143 40.2635 15.3143 39.7995C15.3143 39.5115 15.3603 39.2555 15.4523 39.0315C15.5443 38.8035 15.6563 38.6275 15.7883 38.5035C15.9203 38.3795 16.0723 38.2775 16.2443 38.1975C16.5203 38.0695 16.7963 38.0055 17.0723 38.0055C17.5363 38.0055 17.8583 38.0415 18.0383 38.1135C18.2223 38.1855 18.3143 38.3075 18.3143 38.4795C18.3143 38.6515 18.2823 38.8355 18.2183 39.0315C18.1583 39.2235 18.0783 39.3195 17.9783 39.3195C17.9463 39.3195 17.8483 39.2855 17.6843 39.2175C17.5243 39.1495 17.3843 39.1155 17.2643 39.1155C17.1483 39.1155 17.0583 39.1635 16.9943 39.2595C16.9343 39.3515 16.9043 39.5335 16.9043 39.8055C16.9043 40.0735 16.9323 40.2575 16.9883 40.3575C17.0443 40.4535 17.1303 40.5015 17.2463 40.5015C17.3663 40.5015 17.5143 40.4615 17.6903 40.3815C17.8663 40.3015 17.9643 40.2615 17.9843 40.2615C18.0603 40.2615 18.1323 40.3515 18.2003 40.5315C18.2723 40.7115 18.3083 40.8715 18.3083 41.0115C18.3083 41.2275 18.1963 41.3795 17.9723 41.4675C17.7483 41.5515 17.4443 41.5935 17.0603 41.5935C16.6803 41.5935 16.3763 41.5415 16.1483 41.4375ZM25.6511 41.4855C25.5791 41.5535 25.4151 41.5875 25.1591 41.5875C24.9031 41.5875 24.6911 41.5715 24.5231 41.5395C24.3551 41.5035 24.1951 41.4355 24.0431 41.3355C23.7511 41.1395 23.6051 40.7315 23.6051 40.1115V39.1755H23.3051C23.2611 39.1755 23.2231 39.1295 23.1911 39.0375C23.1591 38.9455 23.1431 38.8195 23.1431 38.6595C23.1431 38.4995 23.1671 38.3595 23.2151 38.2395C23.2671 38.1155 23.3331 38.0535 23.4131 38.0535H23.6051V37.3275C23.6051 37.2035 23.7251 37.1035 23.9651 37.0275C24.2091 36.9515 24.4471 36.9135 24.6791 36.9135C25.0431 36.9135 25.2251 37.0035 25.2251 37.1835V38.0535H25.6691C25.7731 38.0535 25.8251 38.2035 25.8251 38.5035C25.8251 38.6995 25.8011 38.8615 25.7531 38.9895C25.7091 39.1135 25.6511 39.1755 25.5791 39.1755H25.2251V40.2735C25.2251 40.3815 25.2711 40.4595 25.3631 40.5075C25.4551 40.5515 25.5351 40.5735 25.6031 40.5735C25.6751 40.5735 25.7191 40.6075 25.7351 40.6755C25.7511 40.7435 25.7591 40.8455 25.7591 40.9815C25.7591 41.2495 25.7231 41.4175 25.6511 41.4855ZM32.4577 38.4375V41.3955C32.4577 41.4395 32.3417 41.4755 32.1097 41.5035C31.8817 41.5275 31.6457 41.5395 31.4017 41.5395C31.1617 41.5395 31.0057 41.5295 30.9337 41.5095C30.8657 41.4855 30.8317 41.4475 30.8317 41.3955V38.5455C30.8317 38.4575 30.9437 38.3715 31.1677 38.2875C31.3957 38.1995 31.6437 38.1555 31.9117 38.1555C32.2757 38.1555 32.4577 38.2495 32.4577 38.4375ZM31.6417 36.8595C31.9057 36.8595 32.1117 36.8995 32.2597 36.9795C32.4117 37.0555 32.4877 37.1955 32.4877 37.3995C32.4877 37.7595 32.2077 37.9395 31.6477 37.9395C31.0877 37.9395 30.8077 37.7595 30.8077 37.3995C30.8077 37.0395 31.0857 36.8595 31.6417 36.8595ZM37.3453 38.4855C37.3453 38.4455 37.4033 38.3935 37.5193 38.3295C37.6353 38.2615 37.7933 38.1995 37.9933 38.1435C38.1933 38.0875 38.3893 38.0595 38.5813 38.0595C38.9693 38.0595 39.1693 38.1535 39.1813 38.3415L39.3313 40.2495H39.4093L39.5413 38.4375C39.5493 38.3375 39.6873 38.2495 39.9553 38.1735C40.2233 38.0975 40.4593 38.0595 40.6633 38.0595C40.8673 38.0595 41.0193 38.0775 41.1193 38.1135C41.2233 38.1495 41.2893 38.1875 41.3173 38.2275C41.3453 38.2635 41.3593 38.2955 41.3593 38.3235C41.3593 38.3515 41.2733 38.5575 41.1013 38.9415C40.9333 39.3255 40.5953 40.1435 40.0873 41.3955C40.0473 41.4915 39.7213 41.5395 39.1093 41.5395C38.9173 41.5395 38.7913 41.5295 38.7313 41.5095C38.6713 41.4855 38.6313 41.4475 38.6113 41.3955C38.3353 40.6995 38.0553 40.0455 37.7713 39.4335C37.4873 38.8175 37.3453 38.5015 37.3453 38.4855ZM47.7956 40.1835C47.7956 40.4435 47.9196 40.5735 48.1676 40.5735C48.3116 40.5735 48.4996 40.5255 48.7316 40.4295C48.9636 40.3295 49.0856 40.2795 49.0976 40.2795C49.1736 40.2795 49.2736 40.3935 49.3976 40.6215C49.5216 40.8495 49.5836 41.0175 49.5836 41.1255C49.5836 41.2815 49.4236 41.3995 49.1036 41.4795C48.7836 41.5595 48.4696 41.5995 48.1616 41.5995C47.8576 41.5995 47.6016 41.5755 47.3936 41.5275C47.1896 41.4795 47.0216 41.4195 46.8896 41.3475C46.7616 41.2715 46.6476 41.1795 46.5476 41.0715C46.4516 40.9635 46.3796 40.8615 46.3316 40.7655C46.2836 40.6655 46.2456 40.5555 46.2176 40.4355C46.1776 40.2595 46.1576 40.0775 46.1576 39.8895C46.1576 39.1615 46.3476 38.6595 46.7276 38.3835C46.9156 38.2435 47.1256 38.1455 47.3576 38.0895C47.5896 38.0335 47.8636 38.0055 48.1796 38.0055C49.1916 38.0055 49.6976 38.3575 49.6976 39.0615C49.6976 39.8095 49.1296 40.1835 47.9936 40.1835H47.7956ZM47.7836 39.3075V39.7035C47.8996 39.7035 47.9936 39.6575 48.0656 39.5655C48.1416 39.4735 48.1796 39.3615 48.1796 39.2295C48.1796 38.9895 48.1176 38.8695 47.9936 38.8695C47.8536 38.8695 47.7836 39.0155 47.7836 39.3075ZM63.7271 41.2875C63.6071 41.3755 63.4391 41.4495 63.2231 41.5095C63.0111 41.5655 62.7351 41.5935 62.3951 41.5935C62.0591 41.5935 61.7391 41.5655 61.4351 41.5095C61.1311 41.4535 60.9131 41.3915 60.7811 41.3235C60.6491 41.2555 60.5831 41.1895 60.5831 41.1255C60.5831 40.9015 60.6151 40.6695 60.6791 40.4295C60.7431 40.1855 60.8191 40.0635 60.9071 40.0635C60.9231 40.0635 61.0891 40.1175 61.4051 40.2255C61.7211 40.3335 61.9591 40.3875 62.1191 40.3875C62.2791 40.3875 62.3831 40.3715 62.4311 40.3395C62.4791 40.3035 62.5031 40.2535 62.5031 40.1895C62.5031 40.1255 62.4591 40.0695 62.3711 40.0215C62.2831 39.9695 62.1731 39.9255 62.0411 39.8895C61.9091 39.8495 61.7651 39.7935 61.6091 39.7215C61.4571 39.6495 61.3151 39.5695 61.1831 39.4815C61.0511 39.3935 60.9411 39.2695 60.8531 39.1095C60.7651 38.9455 60.7211 38.7595 60.7211 38.5515C60.7211 37.6635 61.2511 37.2195 62.3111 37.2195C62.7071 37.2195 63.0491 37.2455 63.3371 37.2975C63.6251 37.3455 63.8271 37.4015 63.9431 37.4655C64.0631 37.5255 64.1231 37.5855 64.1231 37.6455C64.1231 37.8535 64.0731 38.0775 63.9731 38.3175C63.8771 38.5575 63.7831 38.6775 63.6911 38.6775C63.6751 38.6775 63.6231 38.6595 63.5351 38.6235C63.2711 38.5075 63.0511 38.4495 62.8751 38.4495C62.7031 38.4495 62.5851 38.4655 62.5211 38.4975C62.4611 38.5295 62.4311 38.5795 62.4311 38.6475C62.4311 38.7115 62.4751 38.7655 62.5631 38.8095C62.6511 38.8495 62.7591 38.8875 62.8871 38.9235C63.0191 38.9555 63.1611 39.0075 63.3131 39.0795C63.4691 39.1475 63.6131 39.2295 63.7451 39.3255C63.8771 39.4175 63.9871 39.5495 64.0751 39.7215C64.1631 39.8935 64.2071 40.0935 64.2071 40.3215C64.2071 40.5615 64.1451 40.7795 64.0211 40.9755C63.9451 41.0955 63.8471 41.1995 63.7271 41.2875ZM71.0369 41.5935C70.7369 41.5935 70.4789 41.5675 70.2629 41.5155C70.0469 41.4635 69.8509 41.3715 69.6749 41.2395C69.3109 40.9755 69.1289 40.4835 69.1289 39.7635C69.1289 39.1235 69.3149 38.6655 69.6869 38.3895C70.0349 38.1335 70.4849 38.0055 71.0369 38.0055C71.2729 38.0055 71.4749 38.0175 71.6429 38.0415C71.8109 38.0615 71.9809 38.1075 72.1529 38.1795C72.3289 38.2515 72.4689 38.3495 72.5729 38.4735C72.6809 38.5975 72.7689 38.7695 72.8369 38.9895C72.9049 39.2055 72.9389 39.4635 72.9389 39.7635C72.9389 40.3715 72.7669 40.8295 72.4229 41.1375C72.0789 41.4415 71.6169 41.5935 71.0369 41.5935ZM70.8269 40.4235C70.8549 40.5675 70.8829 40.6535 70.9109 40.6815C70.9429 40.7095 70.9829 40.7235 71.0309 40.7235C71.0829 40.7235 71.1229 40.7095 71.1509 40.6815C71.1829 40.6535 71.2109 40.5675 71.2349 40.4235C71.2629 40.2795 71.2769 40.0995 71.2769 39.8835C71.2769 39.6635 71.2709 39.4955 71.2589 39.3795C71.2509 39.2595 71.2389 39.1675 71.2229 39.1035C71.2109 39.0395 71.1929 38.9895 71.1689 38.9535C71.1329 38.9015 71.0889 38.8755 71.0369 38.8755C70.9889 38.8755 70.9489 38.8915 70.9169 38.9235C70.8849 38.9515 70.8549 39.0395 70.8269 39.1875C70.7989 39.3315 70.7849 39.5375 70.7849 39.8055C70.7849 40.0735 70.7989 40.2795 70.8269 40.4235ZM79.5363 37.1355V41.3955C79.5363 41.4395 79.4223 41.4755 79.1943 41.5035C78.9663 41.5275 78.7303 41.5395 78.4863 41.5395C78.2463 41.5395 78.0903 41.5295 78.0183 41.5095C77.9503 41.4855 77.9163 41.4475 77.9163 41.3955V37.2435C77.9163 37.1555 78.0283 37.0695 78.2523 36.9855C78.4803 36.9015 78.7243 36.8595 78.9843 36.8595C79.3523 36.8595 79.5363 36.9515 79.5363 37.1355ZM86.2254 38.4375V41.3955C86.2254 41.4395 86.1094 41.4755 85.8774 41.5035C85.6494 41.5275 85.4134 41.5395 85.1694 41.5395C84.9294 41.5395 84.7734 41.5295 84.7014 41.5095C84.6334 41.4855 84.5994 41.4475 84.5994 41.3955V38.5455C84.5994 38.4575 84.7114 38.3715 84.9354 38.2875C85.1634 38.1995 85.4114 38.1555 85.6794 38.1555C86.0434 38.1555 86.2254 38.2495 86.2254 38.4375ZM85.4094 36.8595C85.6734 36.8595 85.8794 36.8995 86.0274 36.9795C86.1794 37.0555 86.2554 37.1955 86.2554 37.3995C86.2554 37.7595 85.9754 37.9395 85.4154 37.9395C84.8554 37.9395 84.5754 37.7595 84.5754 37.3995C84.5754 37.0395 84.8534 36.8595 85.4094 36.8595ZM92.4211 41.5935C92.2731 41.5935 92.1351 41.5715 92.0071 41.5275C91.8791 41.4835 91.7731 41.4295 91.6891 41.3655C91.6091 41.3015 91.5391 41.2155 91.4791 41.1075C91.4191 40.9995 91.3731 40.8975 91.3411 40.8015C91.3091 40.7015 91.2851 40.5795 91.2691 40.4355C91.2451 40.2235 91.2331 39.9815 91.2331 39.7095C91.2331 39.1535 91.3351 38.7315 91.5391 38.4435C91.7431 38.1515 92.0231 38.0055 92.3791 38.0055C92.7431 38.0055 93.0071 38.0915 93.1711 38.2635C93.2071 38.3035 93.2351 38.3515 93.2551 38.4075H93.3031L93.2311 37.9935V37.2435C93.2311 37.1555 93.3431 37.0695 93.5671 36.9855C93.7911 36.9015 94.0331 36.8595 94.2931 36.8595C94.5651 36.8595 94.7391 36.9115 94.8151 37.0155C94.8431 37.0555 94.8571 37.0955 94.8571 37.1355V41.3955C94.8571 41.4395 94.7451 41.4755 94.5211 41.5035C94.3011 41.5275 94.0871 41.5395 93.8791 41.5395C93.6751 41.5395 93.5431 41.5335 93.4831 41.5215C93.4271 41.5055 93.3911 41.4895 93.3751 41.4735C93.3631 41.4575 93.3551 41.4315 93.3511 41.3955L93.3031 41.0535H93.2551C93.2191 41.1935 93.1471 41.3115 93.0391 41.4075C92.9031 41.5315 92.6971 41.5935 92.4211 41.5935ZM93.0931 40.7175C93.1571 40.7175 93.2051 40.6775 93.2371 40.5975V38.9955C93.2371 38.9555 93.2151 38.9255 93.1711 38.9055C93.1311 38.8815 93.0951 38.8695 93.0631 38.8695C92.9271 38.8695 92.8591 39.1815 92.8591 39.8055C92.8591 40.1375 92.8771 40.3735 92.9131 40.5135C92.9531 40.6495 93.0131 40.7175 93.0931 40.7175ZM101.037 41.5935C100.673 41.5935 100.387 41.5075 100.179 41.3355C100.095 41.2635 100.021 41.1575 99.9574 41.0175C99.8974 40.8775 99.8674 40.7135 99.8674 40.5255C99.8674 40.3375 99.9114 40.1735 99.9994 40.0335C100.091 39.8935 100.201 39.7855 100.329 39.7095C100.457 39.6335 100.607 39.5715 100.779 39.5235C101.039 39.4555 101.325 39.4215 101.637 39.4215H101.835C101.835 39.2575 101.779 39.1415 101.667 39.0735C101.619 39.0455 101.545 39.0315 101.445 39.0315C101.349 39.0315 101.231 39.0575 101.091 39.1095C100.955 39.1615 100.841 39.2155 100.749 39.2715C100.657 39.3235 100.595 39.3495 100.563 39.3495C100.491 39.3495 100.393 39.2555 100.269 39.0675C100.145 38.8755 100.083 38.7015 100.083 38.5455C100.083 38.4935 100.157 38.4255 100.305 38.3415C100.453 38.2575 100.661 38.1815 100.929 38.1135C101.201 38.0415 101.465 38.0055 101.721 38.0055C101.977 38.0055 102.197 38.0275 102.381 38.0715C102.569 38.1115 102.721 38.1615 102.837 38.2215C102.957 38.2815 103.057 38.3615 103.137 38.4615C103.221 38.5615 103.283 38.6515 103.323 38.7315C103.367 38.8115 103.399 38.9155 103.419 39.0435C103.447 39.1915 103.461 39.3735 103.461 39.5895V41.3955C103.461 41.4395 103.353 41.4755 103.137 41.5035C102.925 41.5275 102.713 41.5395 102.501 41.5395C102.293 41.5395 102.157 41.5335 102.093 41.5215C102.033 41.5095 101.997 41.4955 101.985 41.4795C101.973 41.4635 101.963 41.4355 101.955 41.3955L101.907 41.0535H101.859C101.759 41.4135 101.485 41.5935 101.037 41.5935ZM101.841 40.5975V39.8955C101.737 39.8955 101.653 39.9395 101.589 40.0275C101.525 40.1155 101.493 40.2155 101.493 40.3275C101.493 40.5915 101.553 40.7235 101.673 40.7235C101.725 40.7235 101.765 40.7115 101.793 40.6875C101.825 40.6595 101.841 40.6295 101.841 40.5975ZM110.122 39.6435V41.3955C110.122 41.4395 110.008 41.4755 109.78 41.5035C109.556 41.5275 109.322 41.5395 109.078 41.5395C108.838 41.5395 108.682 41.5295 108.61 41.5095C108.538 41.4855 108.502 41.4475 108.502 41.3955V38.4375C108.502 38.3615 108.612 38.2795 108.832 38.1915C109.056 38.1035 109.298 38.0595 109.558 38.0595C109.822 38.0595 109.97 38.1315 110.002 38.2755L110.062 38.5515H110.104C110.16 38.3995 110.294 38.2715 110.506 38.1675C110.718 38.0595 110.93 38.0055 111.142 38.0055C111.354 38.0055 111.502 38.0395 111.586 38.1075C111.674 38.1755 111.718 38.2635 111.718 38.3715C111.718 38.4755 111.71 38.6095 111.694 38.7735C111.678 38.9375 111.638 39.1155 111.574 39.3075C111.514 39.4995 111.434 39.5955 111.334 39.5955C111.294 39.5955 111.168 39.5655 110.956 39.5055C110.744 39.4455 110.568 39.4155 110.428 39.4155C110.292 39.4155 110.206 39.4355 110.17 39.4755C110.138 39.5155 110.122 39.5715 110.122 39.6435ZM118.287 38.4375V41.3955C118.287 41.4395 118.171 41.4755 117.939 41.5035C117.711 41.5275 117.475 41.5395 117.231 41.5395C116.991 41.5395 116.835 41.5295 116.763 41.5095C116.695 41.4855 116.661 41.4475 116.661 41.3955V38.5455C116.661 38.4575 116.773 38.3715 116.997 38.2875C117.225 38.1995 117.473 38.1555 117.741 38.1555C118.105 38.1555 118.287 38.2495 118.287 38.4375ZM117.471 36.8595C117.735 36.8595 117.941 36.8995 118.089 36.9795C118.241 37.0555 118.317 37.1955 118.317 37.3995C118.317 37.7595 118.037 37.9395 117.477 37.9395C116.917 37.9395 116.637 37.7595 116.637 37.3995C116.637 37.0395 116.915 36.8595 117.471 36.8595ZM125.713 41.4855C125.641 41.5535 125.477 41.5875 125.221 41.5875C124.965 41.5875 124.753 41.5715 124.585 41.5395C124.417 41.5035 124.257 41.4355 124.105 41.3355C123.813 41.1395 123.667 40.7315 123.667 40.1115V39.1755H123.367C123.323 39.1755 123.285 39.1295 123.253 39.0375C123.221 38.9455 123.205 38.8195 123.205 38.6595C123.205 38.4995 123.229 38.3595 123.277 38.2395C123.329 38.1155 123.395 38.0535 123.475 38.0535H123.667V37.3275C123.667 37.2035 123.787 37.1035 124.027 37.0275C124.271 36.9515 124.509 36.9135 124.741 36.9135C125.105 36.9135 125.287 37.0035 125.287 37.1835V38.0535H125.731C125.835 38.0535 125.887 38.2035 125.887 38.5035C125.887 38.6995 125.863 38.8615 125.815 38.9895C125.771 39.1135 125.713 39.1755 125.641 39.1755H125.287V40.2735C125.287 40.3815 125.333 40.4595 125.425 40.5075C125.517 40.5515 125.597 40.5735 125.665 40.5735C125.737 40.5735 125.781 40.6075 125.797 40.6755C125.813 40.7435 125.821 40.8455 125.821 40.9815C125.821 41.2495 125.785 41.4175 125.713 41.4855ZM132.892 41.1495V40.7955H132.844C132.824 40.8155 132.794 40.8415 132.754 40.8735C132.714 40.9055 132.62 40.9475 132.472 40.9995C132.324 41.0515 132.158 41.0775 131.974 41.0775C131.794 41.0775 131.634 41.0495 131.494 40.9935C131.358 40.9335 131.25 40.8555 131.17 40.7595C131.09 40.6595 131.028 40.5275 130.984 40.3635C130.908 40.1035 130.87 39.7355 130.87 39.2595V38.4315C130.87 38.3475 130.988 38.2655 131.224 38.1855C131.46 38.1015 131.708 38.0595 131.968 38.0595C132.316 38.0595 132.49 38.1495 132.49 38.3295V39.0855C132.49 39.8855 132.554 40.2855 132.682 40.2855C132.758 40.2855 132.796 40.2315 132.796 40.1235V38.4315C132.796 38.3475 132.922 38.2655 133.174 38.1855C133.426 38.1015 133.696 38.0595 133.984 38.0595C134.272 38.0595 134.416 38.1375 134.416 38.2935V41.1315C134.416 42.0235 133.812 42.4695 132.604 42.4695C131.968 42.4695 131.536 42.4075 131.308 42.2835C131.208 42.2275 131.158 42.1695 131.158 42.1095C131.158 42.0135 131.198 41.8515 131.278 41.6235C131.358 41.3995 131.432 41.2875 131.5 41.2875C131.516 41.2875 131.572 41.2995 131.668 41.3235C131.964 41.4035 132.21 41.4435 132.406 41.4435C132.606 41.4435 132.736 41.4215 132.796 41.3775C132.86 41.3335 132.892 41.2575 132.892 41.1495Z" fill="#0891B2"/>
</svg>
